<svg width="120" height="25" viewBox="0 0 120 25" fill="none" xmlns="http://www.w3.org/2000/svg">
<path d="M109.626 22.26L115.712 5.68418C116.029 4.13116 115.702 3.32229 114.728 3.26099H105.347V7.30703H111.287L105.916 22.26H109.626Z" fill="#E21221"/>
<path d="M84.216 22.1631H71.4307V16.2064C71.4307 13.6453 73.4878 11.5405 76.0404 11.5405H79.6267C80.1393 11.5405 80.5514 11.1233 80.5514 10.6073V8.02576C80.5514 7.50979 80.1393 7.09258 79.6267 7.09258H71.4495V3.35986H79.6267C82.1589 3.35986 84.2381 5.44419 84.2381 8.02576V10.6073C84.2381 13.1685 82.181 15.2732 79.6267 15.2732H76.0404C75.5313 15.2732 75.1192 15.6904 75.1192 16.2064V18.4287H84.2194V22.1614H84.216V22.1631Z" fill="#E21221"/>
<path d="M95.1808 3.34961V10.7571H91.9045C91.2761 10.7571 90.7465 10.2412 90.7465 9.58385V3.34961H87.0206V10.7571C87.0206 12.8415 88.6878 14.529 90.7465 14.529H95.1808V22.1733H98.9067V3.34961H95.1808Z" fill="#E21221"/>
<path d="M26.9685 23.905C23.4384 23.905 21.6743 22.0539 21.6743 18.3502V12.7954C21.6743 9.09159 23.4384 7.24056 26.9685 7.24056H30.9635V1.13403H34.829V23.9067L26.9685 23.905ZM30.9635 11.2032H27.0979C26.0592 11.2032 25.5381 11.777 25.5381 12.9248V18.2531C25.5381 19.4008 26.0575 19.9747 27.0979 19.9747H30.9635V11.2032ZM42.3149 23.905C38.7848 23.905 37.0206 22.0539 37.0206 18.3502V12.7954C37.0206 9.09159 38.7848 7.24056 42.3149 7.24056H46.3098V1.13403H50.1754V23.9067L42.3149 23.905ZM46.3098 11.2032H42.4443C41.4055 11.2032 40.8845 11.777 40.8845 12.9248V18.2531C40.8845 19.4008 41.4038 19.9747 42.4443 19.9747H46.3098V11.2032ZM56.4266 23.905C53.6118 23.905 52.2035 22.3996 52.2035 19.3889V17.7644C52.2035 15.1658 53.622 13.8665 56.459 13.8665H61.7533V12.9248C61.7533 11.777 61.2339 11.2032 60.1934 11.2032H53.2099V7.24056H60.1934C63.7014 7.24056 65.4553 9.09159 65.4553 12.7954V23.905H56.4266V23.905ZM61.7533 16.855H56.9784C56.1985 16.855 55.8085 17.2773 55.8085 18.122V19.096C55.8085 19.8538 56.1985 20.2336 56.9784 20.2336H61.7533V16.855V16.855Z" fill="#E21221"/>
<path fill-rule="evenodd" clip-rule="evenodd" d="M116.818 23.8897H102.74V1.11369H116.545C117.104 1.11369 117.538 1.26865 117.829 1.54622C118.153 1.85444 118.406 2.21715 118.406 2.71439V22.243C118.406 23.1166 117.688 23.8897 116.818 23.8897ZM68.7725 22.0659V3.02602C68.7725 1.86636 69.4281 1.11369 70.6338 1.11369H101.786V23.8897H70.4533C69.4366 23.8897 68.7725 23.0791 68.7725 22.0659ZM67.6827 2.58157V22.4661C67.6827 22.8271 67.8291 23.246 67.9568 23.4861C68.1288 23.8097 68.1578 23.8114 68.3485 24.0362C68.4336 24.1349 68.4098 24.14 68.512 24.232C68.982 24.6509 69.6955 25 70.3613 25H116.772C118.277 25 119.542 23.7245 119.542 22.2413V2.75867C119.542 1.59049 118.769 0.587497 117.674 0.183914C117.323 0.0544951 116.84 0 116.363 0H70.816C69.8368 0 69.188 0.233298 68.6499 0.679453C68.2004 1.05409 67.6827 1.79143 67.6827 2.58157Z" fill="#E21221"/>
<path fill-rule="evenodd" clip-rule="evenodd" d="M0 22.742C0 22.9447 0.0596007 23.161 0.178802 23.3227L0.240106 23.4062C0.306519 23.4879 0.37804 23.5594 0.459778 23.6207C0.487024 23.6412 0.51427 23.6616 0.544922 23.6803L0.635174 23.7348C0.725427 23.7893 0.842926 23.8302 0.950208 23.854C1.26354 23.9255 1.5343 23.8847 1.82379 23.7638L2.4828 23.4045C2.50494 23.3943 2.51856 23.384 2.5407 23.3721C2.80635 23.2376 3.06859 23.0928 3.33424 22.96L4.83959 22.2516L5.62291 21.9264C5.71146 21.8906 5.80342 21.86 5.88856 21.8242L6.15591 21.7237C6.2036 21.7067 6.24787 21.6931 6.29385 21.676C6.47435 21.6062 6.66167 21.5517 6.84388 21.4904C7.12656 21.3951 7.5659 21.2759 7.85709 21.206C8.36114 21.0868 8.91628 20.9779 9.43907 20.937C9.64512 20.9217 9.84776 20.9046 10.0538 20.9063C10.0947 20.9063 10.1117 20.9012 10.1441 20.8995C10.2105 20.8978 10.2547 20.9063 10.3195 20.9063L11.1845 20.9642C11.4025 20.9932 11.6154 21.0204 11.8299 21.0613C12.0343 21.1005 12.2386 21.1379 12.4378 21.1873L12.7375 21.2605C13.0304 21.3338 13.308 21.4223 13.5941 21.5075L13.8751 21.5994C13.9653 21.6335 14.0556 21.6607 14.1492 21.6931C14.4438 21.7952 14.8014 21.9281 15.0824 22.049L15.4741 22.2125C15.5184 22.2312 15.5592 22.2482 15.6001 22.2669L16.4907 22.6722C16.5316 22.6893 16.5707 22.7131 16.6116 22.7318C16.6576 22.7523 16.695 22.771 16.7376 22.7914L17.899 23.384C17.9245 23.396 17.9398 23.4062 17.962 23.4181C18.0029 23.4385 18.0386 23.4573 18.0812 23.4811C18.1033 23.493 18.1152 23.5015 18.1391 23.5134C18.306 23.5952 18.4558 23.6991 18.6312 23.7638C18.9275 23.8745 19.3328 23.8694 19.6155 23.7331C19.6955 23.694 19.7739 23.6565 19.8471 23.6037C20.0327 23.4692 20.1825 23.2989 20.2694 23.086C20.3784 22.8153 20.3631 22.5581 20.2575 22.2908C20.2166 22.1886 20.1519 22.0558 20.1059 21.9468C20.0565 21.8293 20.0123 21.7169 19.9561 21.6011C19.9016 21.487 19.859 21.3661 19.8062 21.252C19.779 21.1941 19.7568 21.1396 19.7313 21.08L19.5814 20.736C19.5559 20.6747 19.532 20.622 19.5065 20.5641C19.481 20.5062 19.4588 20.4517 19.4316 20.3921L18.982 19.3533C18.9565 19.2954 18.9343 19.2409 18.9071 19.1813L18.4575 18.1426C18.4064 18.0251 18.3571 17.9093 18.306 17.7935L17.5584 16.0633C17.4154 15.7125 17.2502 15.3703 17.1054 15.0212C17.0578 14.9071 17.0033 14.7896 16.9573 14.6755C16.7904 14.2685 16.5997 13.8717 16.4328 13.4631C16.2659 13.0544 16.0735 12.6559 15.9066 12.2472L15.6052 11.5524C15.5797 11.4962 15.5558 11.44 15.5303 11.3804L15.0058 10.168C14.9564 10.0505 14.907 9.93979 14.8559 9.82399L14.1816 8.26244C14.0334 7.91506 13.8853 7.56767 13.7303 7.22369L13.2041 6.00783C13.0798 5.72005 12.9504 5.43397 12.8312 5.14448L12.1552 3.58464C11.9576 3.12315 11.7601 2.65997 11.5557 2.20019C11.4672 1.99925 11.4314 1.87665 11.3105 1.69614C11.205 1.53777 11.0585 1.39814 10.8916 1.30788C10.7333 1.21933 10.5664 1.15973 10.3842 1.13419C10.0112 1.0814 9.62468 1.17847 9.32498 1.40325C9.29943 1.42198 9.2807 1.44241 9.25686 1.46114C9.20577 1.50201 9.17853 1.53948 9.13425 1.58546C9.11552 1.60419 9.09679 1.63143 9.08146 1.65186C8.97418 1.79661 8.93842 1.89878 8.8652 2.06226C8.73748 2.34834 8.61658 2.63783 8.49056 2.92392C8.46502 2.98182 8.44118 3.03631 8.41564 3.09591C8.34241 3.27131 8.26238 3.44159 8.18915 3.61699C8.09379 3.84858 7.98651 4.07506 7.89115 4.30666C7.87753 4.33731 7.86731 4.35944 7.85539 4.3918C7.84177 4.42415 7.82814 4.4514 7.81622 4.48035C7.8043 4.511 7.79068 4.53825 7.77876 4.5689L7.51652 5.17513C7.48927 5.23643 7.46713 5.29092 7.43989 5.35223C7.23554 5.812 7.03801 6.27519 6.84047 6.73667L6.53906 7.42974C6.51182 7.48934 6.48968 7.54383 6.46414 7.60173C6.43859 7.65962 6.41475 7.71412 6.38921 7.77372L5.56331 9.67924C5.53777 9.73884 5.51563 9.79163 5.48839 9.85124L5.03542 10.8934C4.98093 11.0092 4.94176 11.1233 4.88727 11.2391C4.79872 11.4281 4.67271 11.7312 4.58586 11.9322L4.28785 12.6235C4.23677 12.741 4.18398 12.8568 4.1363 12.9726C3.99326 13.3217 3.83148 13.6623 3.68503 14.0114L3.16055 15.2238C3.135 15.2851 3.11116 15.3379 3.08562 15.3958C3.0141 15.5576 2.93236 15.7636 2.86084 15.9186L2.71099 16.2626C2.59008 16.5555 2.45726 16.8433 2.33295 17.1328C2.16096 17.5363 1.98045 17.9348 1.81016 18.3401C1.61603 18.805 1.40147 19.2631 1.20905 19.7279C1.1852 19.7858 1.15626 19.8471 1.13242 19.905C1.10858 19.9646 1.08303 20.0174 1.05749 20.077C1.00981 20.1894 0.960425 20.3137 0.907636 20.4227L0.684558 20.9404C0.660718 20.9966 0.635175 21.0528 0.609632 21.1124C0.584088 21.1754 0.560248 21.2282 0.533002 21.2895L0.158368 22.1563C0.0834412 22.3572 0 22.4968 0 22.742ZM6.37218 17.1038C6.37218 17.1804 6.39432 17.2605 6.43859 17.3218L6.46073 17.3524C6.48457 17.3831 6.51182 17.4103 6.54247 17.4325C6.55269 17.4393 6.5629 17.4478 6.57482 17.4546L6.60888 17.475C6.64294 17.4955 6.68721 17.5108 6.72638 17.5193C6.84388 17.5466 6.94435 17.5312 7.05333 17.4853L7.30025 17.3507C7.30877 17.3473 7.31387 17.3422 7.32239 17.3388C7.42115 17.2877 7.51992 17.2349 7.61869 17.1855L8.18064 16.9216L8.47354 16.8007C8.50589 16.7871 8.53995 16.7752 8.5723 16.7632L8.67277 16.7258C8.6898 16.719 8.70683 16.7138 8.72386 16.707C8.79197 16.6815 8.86179 16.6611 8.92991 16.6372C9.03549 16.6015 9.19896 16.5572 9.30795 16.5316C9.49697 16.4874 9.70301 16.4465 9.89885 16.4312C9.97548 16.4244 10.0521 16.4192 10.1287 16.4192C10.1441 16.4192 10.1509 16.4175 10.1628 16.4175C10.1883 16.4175 10.2037 16.4192 10.2275 16.4192L10.551 16.4414C10.6328 16.4533 10.7128 16.4618 10.7929 16.4772C10.8695 16.4908 10.9461 16.5061 11.021 16.5248L11.1334 16.5521C11.2424 16.5793 11.3463 16.6134 11.4536 16.644L11.5592 16.6781C11.5932 16.69 11.6273 16.7002 11.6613 16.7138C11.772 16.753 11.9048 16.8007 12.0104 16.8467L12.1569 16.908C12.1722 16.9148 12.1892 16.9216 12.2045 16.9284L12.5383 17.08C12.5536 17.0868 12.569 17.0953 12.5843 17.1021C12.6013 17.1089 12.6149 17.1157 12.632 17.1242L13.0662 17.3456C13.0764 17.3507 13.0815 17.3541 13.09 17.3592C13.1054 17.3678 13.119 17.3746 13.1343 17.3831C13.1428 17.3882 13.1462 17.3899 13.1565 17.395C13.2178 17.4256 13.2757 17.4648 13.3404 17.4887C13.4511 17.5295 13.6026 17.5278 13.7082 17.4767C13.7388 17.4614 13.7678 17.4478 13.795 17.4274C13.8649 17.378 13.9211 17.3133 13.9534 17.2332C13.9943 17.1328 13.9892 17.0357 13.9483 16.9369C13.933 16.8978 13.9091 16.8484 13.8921 16.8092C13.8734 16.7649 13.8563 16.7224 13.8359 16.6798C13.8155 16.6372 13.8001 16.5929 13.7797 16.5487C13.7695 16.5265 13.761 16.5061 13.7525 16.484L13.6963 16.3545C13.6861 16.3324 13.6775 16.312 13.669 16.2898C13.6588 16.2677 13.6503 16.2473 13.6418 16.2251L13.4732 15.8369C13.463 15.8147 13.4545 15.7943 13.4459 15.7722L13.2774 15.3839C13.2586 15.3396 13.2399 15.2971 13.2212 15.2528L12.9419 14.6057C12.8874 14.4746 12.8261 14.3468 12.7733 14.2157C12.7563 14.1731 12.7358 14.1289 12.7171 14.0863C12.6541 13.9347 12.5843 13.7866 12.5213 13.6333C12.4583 13.4801 12.3868 13.3319 12.3255 13.1787L12.2131 12.9198C12.2028 12.8977 12.1943 12.8773 12.1858 12.8551L11.99 12.4021C11.9713 12.3579 11.9525 12.317 11.9338 12.2727L11.6818 11.6886C11.6256 11.5592 11.5711 11.4298 11.5132 11.3004L11.3156 10.8457C11.2697 10.7384 11.2203 10.6312 11.176 10.5239L10.924 9.93979C10.8508 9.7678 10.7758 9.5941 10.7009 9.42211C10.6668 9.34718 10.6532 9.30121 10.6089 9.23479C10.5698 9.17519 10.5153 9.12411 10.4523 9.09005C10.3927 9.0577 10.3314 9.03556 10.2633 9.02534C10.1236 9.00491 9.97888 9.04237 9.86819 9.12581C9.85798 9.13262 9.85117 9.13943 9.84265 9.14795C9.82392 9.16327 9.8137 9.1769 9.79667 9.19393C9.78986 9.20074 9.78305 9.21095 9.77624 9.21946C9.73537 9.27396 9.72345 9.31142 9.6962 9.37273C9.64852 9.48001 9.60255 9.58729 9.55657 9.69457C9.54635 9.71671 9.53784 9.73715 9.52932 9.75928C9.50208 9.8257 9.47142 9.8887 9.44418 9.95511C9.40842 10.042 9.36925 10.1271 9.33179 10.2122C9.32668 10.2242 9.32327 10.2327 9.31816 10.2446C9.31306 10.2565 9.30795 10.2667 9.30454 10.277C9.29943 10.2889 9.29603 10.2991 9.29092 10.311L9.19385 10.5375C9.18364 10.5596 9.17512 10.5801 9.1649 10.6039C9.08828 10.7759 9.01505 10.9496 8.94183 11.1216L8.82944 11.3804C8.81922 11.4026 8.81071 11.423 8.80219 11.4451C8.79368 11.4673 8.78346 11.4877 8.77494 11.5098L8.46672 12.2216C8.45651 12.2438 8.44799 12.2642 8.43948 12.2864L8.27089 12.6763C8.25046 12.7206 8.23513 12.7615 8.2147 12.8057C8.18234 12.8773 8.13466 12.9896 8.10231 13.0646L7.99162 13.3234C7.97289 13.3677 7.95245 13.4103 7.93542 13.4528C7.88264 13.584 7.82133 13.7117 7.76684 13.8411L7.57101 14.2941C7.56079 14.3162 7.55228 14.3366 7.54376 14.3588C7.51652 14.4184 7.48586 14.4967 7.46032 14.5546L7.40413 14.684C7.35815 14.793 7.30876 14.9003 7.26279 15.0093C7.19808 15.1608 7.12996 15.309 7.06696 15.4605C6.99373 15.6342 6.9137 15.8045 6.84218 15.9799C6.83366 16.002 6.82174 16.0242 6.81323 16.0463C6.80471 16.0685 6.79449 16.0889 6.78598 16.111C6.76725 16.1536 6.75022 16.1996 6.72978 16.2404L6.64634 16.4346C6.63783 16.455 6.62761 16.4771 6.6191 16.4993C6.60888 16.5231 6.60037 16.5419 6.59015 16.5657L6.45051 16.8892C6.40283 16.9591 6.37218 17.0119 6.37218 17.1038Z" fill="#E21221"/>
</svg>
